<svg id="Layer_1" data-name="Layer 1" xmlns="http://www.w3.org/2000/svg" viewBox="0 0 265.7 239.82"><path d="M331.33,139.47a7.15,7.15,0,0,0-5.56-3.29L138.21,123.9l-3.54-24.52a7.16,7.16,0,0,0-5.37-5.93L75.63,80.21a7.16,7.16,0,0,0-3.43,13.9l49,12.08L140.05,236.9c-2.6,2.45-5.7,5.51-8.69,8.79-7.45,8.16-16.65,20.07-10.52,29.06a7.16,7.16,0,0,0,6,3.13c24.88-.34,141.21,0,154.39,0h.22a7.16,7.16,0,0,0,0-14.31h-.19c-12,0-109.66-.29-145.88-.08a75,75,0,0,1,8.42-10.19c5.07-5.3,10.16-9.76,11.43-10.85H289.89a7.16,7.16,0,0,0,6.68-4.58l35.41-92A7.12,7.12,0,0,0,331.33,139.47Z" transform="translate(-66.76 -80)"/><path d="M143,319.82A20.84,20.84,0,1,1,163.81,299,20.85,20.85,0,0,1,143,319.82Zm0-27.17a6.34,6.34,0,1,0,6.34,6.34A6.35,6.35,0,0,0,143,292.65Z" transform="translate(-66.76 -80)"/><path d="M265,319.82A20.84,20.84,0,1,1,285.83,299,20.86,20.86,0,0,1,265,319.82Zm0-27.17a6.34,6.34,0,1,0,6.35,6.34A6.35,6.35,0,0,0,265,292.65Z" transform="translate(-66.76 -80)"/></svg>